<svg xmlns="http://www.w3.org/2000/svg" viewBox="0 0 238.96 238.6"><defs><style>.cls-1{fill:#39bca7;}</style></defs><g id="Layer_2" data-name="Layer 2"><g id="Layer_1-2" data-name="Layer 1"><path class="cls-1" d="M232,95.58s0,0,0,0l-1.21-1.77a5.6,5.6,0,0,0-.36-.49c-.15-.24-.33-.5-.51-.76a337.84,337.84,0,0,0-38.15-45.46A338.19,338.19,0,0,0,148,10.15l-1.81-1.28-.45-.32L143.52,7,143.4,7a44.76,44.76,0,0,0-48.76.53c-.15.11-.32.21-.47.33-.4.27-.8.55-1.18.84h0q-4.57,3.18-9,6.52-3,2.22-5.9,4.5-5.85,4.58-11.5,9.39-2.82,2.4-5.58,4.87Q54,40.14,47.47,46.67A339.56,339.56,0,0,0,9.31,92.06l-1,1.43a.22.22,0,0,0-.07.09c-.39.59-.81,1.18-1.2,1.77a.25.25,0,0,0,0,.07,44.7,44.7,0,0,0-.39,47.41c.58.94,1.18,1.86,1.84,2.74.23.34.48.66.72,1a337.36,337.36,0,0,0,35,42.17l5.71,5.71A337.27,337.27,0,0,0,91.48,229a.22.22,0,0,1,.06,0,.24.24,0,0,1,.08.06,43.45,43.45,0,0,0,4.34,3,.59.59,0,0,1,.11.08,44.74,44.74,0,0,0,47.07-.61,4.68,4.68,0,0,0,.4-.27c.71-.47,1.42-1,2.12-1.46a2.12,2.12,0,0,1,.21-.15l.62-.41a336,336,0,0,0,45.82-38.25c.18-.16.35-.33.53-.51l.53-.53a340.11,340.11,0,0,0,35.7-42.22c.28-.4.58-.81.85-1.21a.08.08,0,0,0,0,0c.67-.94,1.34-1.88,2-2.83a1.1,1.1,0,0,1,.09-.14,44.75,44.75,0,0,0-.06-48ZM208,128.91c-.16.23-.33.47-.51.7A305.16,305.16,0,0,1,181,162.33c-1.49,1.61-3,3.22-4.54,4.8q-1.74,1.8-3.5,3.55t-3.55,3.5c-2.46,2.36-4.94,4.7-7.46,7a307.4,307.4,0,0,1-33.13,26.18.48.48,0,0,0-.11.09c-.31.21-.62.43-.94.63a2.17,2.17,0,0,1-.34.22,15.92,15.92,0,0,1-16.55,0,.42.42,0,0,1-.14-.09,12.16,12.16,0,0,1-1.26-.86,1.94,1.94,0,0,1-.27-.21,308,308,0,0,1-32.85-26.28q-3.27-3-6.44-6.1l-.39-.37-5.23-5.24c-.13-.13-.26-.25-.37-.38q-3.16-3.23-6.2-6.56a306.06,306.06,0,0,1-27-33.89c-.23-.31-.46-.63-.67-1A15.94,15.94,0,0,1,30.15,110a.86.86,0,0,1,.07-.1l.38-.53c0-.09.13-.18.19-.27A309.51,309.51,0,0,1,51,83.73q3.16-3.62,6.47-7.12,2.79-3,5.68-5.87L64.91,69q5.75-5.73,11.82-11.13A310.16,310.16,0,0,1,111.47,31a8.54,8.54,0,0,1,.86-.57,16,16,0,0,1,17.15.37c.24.16.46.33.67.49a305.68,305.68,0,0,1,32.09,26.23c1.24,1.14,2.45,2.3,3.65,3.47s2.62,2.53,3.91,3.83,2.58,2.6,3.84,3.91q3.88,4,7.6,8.14c1.77,2,3.51,4,5.19,6a304.62,304.62,0,0,1,21.3,28,.41.41,0,0,1,.07.11l.36.54a2.49,2.49,0,0,1,.2.32,16,16,0,0,1-.35,17.12Z"/><path class="cls-1" d="M194.23,121.85a13.48,13.48,0,0,1-1.92,7.43c-.14.18-.28.39-.42.58-.8,1.14-1.61,2.27-2.45,3.41a248.51,248.51,0,0,1-19.25,23.39c-1.22,1.33-2.47,2.64-3.72,3.94l-2.86,2.9c-1,.95-1.93,1.92-2.91,2.87-2,1.94-4,3.86-6.12,5.71a252.63,252.63,0,0,1-27.14,21.45l-.1.08c-.25.17-.5.35-.76.51a1.47,1.47,0,0,1-.28.18,13,13,0,0,1-13.56,0,.29.29,0,0,1-.12-.07,10.06,10.06,0,0,1-1-.71l-.22-.17a252.26,252.26,0,0,1-26.9-21.54c-1.8-1.63-3.55-3.29-5.29-5-.1-.09-.2-.21-.31-.31l-3.06-3-1.23-1.23-.31-.32q-2.58-2.64-5.08-5.38l-1.1-1.21a8.13,8.13,0,0,1-2.18-5.38v0a14.24,14.24,0,0,1,14.22-14.24h0a9.38,9.38,0,0,1,6.52,2.83l.33.33c2.13,2.14,4.29,4.24,6.49,6.27a230.74,230.74,0,0,0,18.18,15.28,1.75,1.75,0,0,0,.2.16,7.11,7.11,0,0,0,1,.71s.07.05.11.08a11.16,11.16,0,0,0,12.43,0,1.71,1.71,0,0,0,.25-.18l.7-.52.09-.07a237,237,0,0,0,24.89-21.46c1.89-1.85,3.76-3.76,5.59-5.71.9-.95,1.79-1.9,2.68-2.86s1.75-1.93,2.62-2.91q1.73-2,3.41-3.94c.58-.68,1.16-1.36,1.71-2q4.91-5.86,9.37-12a6,6,0,0,1,4.82-2.47h0a11.26,11.26,0,0,1,6,2.22,7,7,0,0,1,.73.59,21.37,21.37,0,0,1,3.76,4.43.56.56,0,0,1,0,.08c.1.15.19.3.3.45a2.26,2.26,0,0,1,.16.26A12.21,12.21,0,0,1,194.23,121.85Z"/></g></g></svg>